<?xml version="1.0" encoding="UTF-8"?>
<svg xmlns="http://www.w3.org/2000/svg" xmlns:xlink="http://www.w3.org/1999/xlink" viewBox="0 0 500 500" width="500px" height="500px">
<g id="surface159174961">
<path style=" stroke:none;fill-rule:nonzero;fill:rgb(50.196081%,57.254905%,28.627452%);fill-opacity:1;" d="M 289.6875 12.1875 C 287.8125 12.539062 286.09375 13.398438 284.6875 14.6875 L 242.5 50.9375 L 228.125 35 C 226.171875 32.734375 223.28125 31.484375 220.3125 31.5625 C 217.8125 31.757812 215.46875 32.851562 213.75 34.6875 L 188.75 60 L 154.6875 60 C 154.375 60 154.0625 60 153.75 60 C 153.4375 60 153.125 60 152.8125 60 C 151.210938 60.351562 149.6875 61.09375 148.4375 62.1875 L 46.875 140.3125 L 46.25 140.625 C 46.132812 140.742188 46.054688 140.820312 45.9375 140.9375 C 45.820312 140.9375 45.742188 140.9375 45.625 140.9375 C 45.195312 141.132812 44.765625 141.328125 44.375 141.5625 C 44.257812 141.679688 44.179688 141.757812 44.0625 141.875 C 43.828125 142.070312 43.632812 142.265625 43.4375 142.5 C 43.085938 142.773438 42.773438 143.085938 42.5 143.4375 C 42.148438 143.828125 41.835938 144.257812 41.5625 144.6875 C 41.445312 144.882812 41.328125 145.117188 41.25 145.3125 C 41.132812 145.429688 41.054688 145.507812 40.9375 145.625 C 40.703125 146.132812 40.46875 146.640625 40.3125 147.1875 L 0.9375 225.625 C -1.015625 229.492188 -0.273438 234.140625 2.773438 237.226562 C 5.859375 240.273438 10.507812 241.015625 14.375 239.0625 L 40 226.25 L 40 430 C 40 435.507812 44.492188 440 50 440 L 350 440 C 350.117188 440 350.195312 440 350.3125 440 C 350.9375 439.960938 351.5625 439.84375 352.1875 439.6875 C 352.5 439.609375 352.8125 439.492188 353.125 439.375 C 355.625 438.632812 357.773438 436.953125 359.0625 434.6875 L 437.8125 336.25 C 439.21875 334.492188 440 332.265625 440 330 L 440 234.375 L 497.1875 177.1875 C 500.351562 173.867188 500.859375 168.867188 498.4375 165 L 440.3125 68.125 C 440.234375 67.8125 440.117188 67.5 440 67.1875 C 439.570312 65.78125 438.789062 64.53125 437.8125 63.4375 C 437.734375 63.242188 437.617188 63.007812 437.5 62.8125 C 437.382812 62.8125 437.304688 62.8125 437.1875 62.8125 C 437.109375 62.617188 436.992188 62.382812 436.875 62.1875 C 436.757812 62.1875 436.679688 62.1875 436.5625 62.1875 C 436.367188 62.070312 436.132812 61.953125 435.9375 61.875 C 435.9375 61.757812 435.9375 61.679688 435.9375 61.5625 C 435.820312 61.5625 435.742188 61.5625 435.625 61.5625 C 435.117188 61.210938 434.609375 60.898438 434.0625 60.625 C 433.945312 60.625 433.867188 60.625 433.75 60.625 C 433.554688 60.507812 433.320312 60.390625 433.125 60.3125 C 433.007812 60.3125 432.929688 60.3125 432.8125 60.3125 C 432.617188 60.195312 432.382812 60.078125 432.1875 60 C 432.070312 60 431.992188 60 431.875 60 C 431.679688 60 431.445312 60 431.25 60 C 431.132812 60 431.054688 60 430.9375 60 C 430.742188 60 430.507812 60 430.3125 60 C 430.195312 60 430.117188 60 430 60 L 429.375 60 C 429.179688 60 428.945312 60 428.75 60 L 340.3125 60 L 298.4375 15.625 C 296.679688 13.59375 294.21875 12.382812 291.5625 12.1875 C 290.9375 12.109375 290.3125 12.109375 289.6875 12.1875 Z M 290.625 35.9375 L 367.8125 117.8125 L 345.625 140 L 321.5625 140 C 321.289062 139.648438 320.976562 139.335938 320.625 139.0625 L 255.625 65.9375 Z M 220.3125 56.25 L 295 140 L 138.4375 140 Z M 157.8125 80 L 169.375 80 L 110.3125 140 L 79.375 140 Z M 359.0625 80 L 405.625 80 L 381.5625 104.0625 Z M 428.125 86.25 L 477.5 168.125 L 411.875 233.75 L 362.5 151.875 Z M 60 160 L 340 160 L 340 420 L 60 420 L 60 211.25 C 60.039062 210.820312 60.039062 210.429688 60 210 Z M 360 185.625 L 401.5625 255 C 403.085938 257.65625 405.78125 259.492188 408.828125 259.921875 C 411.875 260.351562 414.960938 259.335938 417.1875 257.1875 L 420 254.375 L 420 326.5625 L 360 401.5625 Z M 40 192.5 L 40 203.75 L 32.5 207.5 Z M 147.1875 200 C 141.679688 200.78125 137.8125 205.898438 138.59375 211.40625 C 139.375 216.914062 144.492188 220.78125 150 220 L 250 220 C 253.59375 220.039062 256.953125 218.164062 258.789062 215.039062 C 260.585938 211.914062 260.585938 208.085938 258.789062 204.960938 C 256.953125 201.835938 253.59375 199.960938 250 200 L 150 200 C 149.6875 200 149.375 200 149.0625 200 C 148.75 200 148.4375 200 148.125 200 C 147.8125 200 147.5 200 147.1875 200 Z M 147.1875 200 "/>
</g>
</svg>
