<svg fill="#000000" xmlns="http://www.w3.org/2000/svg"  viewBox="0 0 24 24" width="384px" height="384px" fill-rule="evenodd" clip-rule="evenodd"><path d="M 4.3535156 1.25 C 2.6395156 1.25 1.25 2.6395156 1.25 4.3535156 L 1.25 12.265625 C 1.25 13.088625 1.5762031 13.876984 2.1582031 14.458984 C 2.7402031 15.040984 3.5305156 15.367187 4.3535156 15.367188 L 5.6621094 15.367188 L 8.1816406 18.607422 C 8.3246406 18.789422 8.5433906 18.896484 8.7753906 18.896484 C 9.0063906 18.896484 9.2241875 18.789422 9.3671875 18.607422 L 11.886719 15.367188 L 16.146484 15.367188 C 16.969484 15.367188 17.759797 15.040984 18.341797 14.458984 C 18.923797 13.876984 19.25 13.088625 19.25 12.265625 L 19.25 4.3535156 C 19.25 2.6395156 17.860484 1.25 16.146484 1.25 L 4.3535156 1.25 z M 20.25 5.1621094 L 20.25 12.265625 C 20.25 13.353625 19.818828 14.396016 19.048828 15.166016 C 18.279828 15.935016 17.234484 16.367188 16.146484 16.367188 L 12.376953 16.367188 L 10.208984 19.152344 C 10.418984 19.197344 10.635516 19.220703 10.853516 19.220703 L 12.162109 19.220703 L 14.681641 22.460938 C 14.824641 22.643937 15.043391 22.75 15.275391 22.75 C 15.506391 22.75 15.724188 22.643938 15.867188 22.460938 L 18.386719 19.220703 L 19.646484 19.220703 C 20.469484 19.220703 21.259797 18.8945 21.841797 18.3125 C 22.423797 17.7305 22.75 16.940188 22.75 16.117188 L 22.75 8.2050781 C 22.75 6.6970781 21.675 5.4421094 20.25 5.1621094 z"/></svg>