<svg xmlns="http://www.w3.org/2000/svg" width="985.453" height="729.235" viewBox="0 0 985.453 729.235">
  <path id="compact-camera-500" d="M335.054,5c-16.168,0-27.562,9.855-35.723,19.093S284.549,43.8,278.39,53.657s-11.779,19.093-16.63,24.636a29.822,29.822,0,0,1-6.159,5.543H59.127A59.441,59.441,0,0,0,0,142.963V675.108a59.441,59.441,0,0,0,59.127,59.127h867.2a59.441,59.441,0,0,0,59.127-59.127V142.963a59.441,59.441,0,0,0-59.127-59.127H729.851c.077.077-.154,0-.616,0a40.152,40.152,0,0,1-5.543-5.543c-4.85-5.543-10.47-14.782-16.63-24.636s-12.78-20.325-20.941-29.564S666.566,5,650.4,5Zm0,39.418H650.4c-1.232,0,1.309,0,6.159,5.543s10.47,14.782,16.63,24.636,12.934,20.325,20.941,29.564,18.939,19.093,35.107,19.093H926.326a19.457,19.457,0,0,1,19.709,19.709V675.108a19.457,19.457,0,0,1-19.709,19.709H59.127a19.457,19.457,0,0,1-19.709-19.709V142.963a19.457,19.457,0,0,1,19.709-19.709H256.218c16.168,0,27.1-9.855,35.107-19.093S306.106,84.452,312.265,74.6s11.779-19.093,16.63-24.636S336.286,44.418,335.054,44.418Zm157.672,78.836c-141.274,0-256.218,114.944-256.218,256.218S351.452,635.69,492.726,635.69,748.944,520.746,748.944,379.472,634,123.254,492.726,123.254Zm0,39.418a216.8,216.8,0,1,1-216.8,216.8A216.528,216.528,0,0,1,492.726,162.672ZM157.672,182.382a39.418,39.418,0,1,0,0,78.836h19.709a39.418,39.418,0,0,0,0-78.836Zm335.054,19.709c-97.7,0-177.381,79.683-177.381,177.381s79.683,177.381,177.381,177.381S670.108,477.17,670.108,379.472,590.425,202.091,492.726,202.091Zm0,39.418A137.963,137.963,0,1,1,354.763,379.472,137.639,137.639,0,0,1,492.726,241.509Z" transform="translate(0 -5)" fill="#fff"/>
</svg>
