<?xml version="1.0" encoding="UTF-8"?>
<svg xmlns="http://www.w3.org/2000/svg" xmlns:xlink="http://www.w3.org/1999/xlink" viewBox="0 0 272 272" width="272px" height="272px">
<g id="surface159021534">
<path style=" stroke:none;fill-rule:nonzero;fill:rgb(30.588236%,55.29412%,61.56863%);fill-opacity:1;" d="M 136 16.765625 C 126.898438 16.765625 119.371094 23.648438 118.34375 32.480469 C 102.128906 39.109375 91.042969 54.390625 89.679688 71.851562 C 86.203125 72.332031 83.515625 75.28125 83.515625 78.886719 L 83.515625 87.226562 C 83.515625 91.164062 86.714844 94.367188 90.65625 94.367188 L 93.792969 94.367188 L 93.792969 113.191406 C 93.792969 126.914062 100.40625 139.085938 110.574219 146.800781 L 110.574219 152.714844 L 90.929688 156.375 C 69.582031 160.359375 54.121094 179.035156 54.121094 200.753906 L 54.121094 239.542969 C 54.121094 248.1875 61.125 255.226562 69.769531 255.226562 C 70.140625 255.226562 211.226562 255.234375 202.230469 255.226562 C 210.875 255.226562 217.878906 248.1875 217.878906 239.542969 L 217.878906 200.753906 C 217.878906 179.035156 202.417969 160.359375 181.070312 156.375 L 161.425781 152.714844 L 161.425781 146.800781 C 171.597656 139.085938 178.210938 126.914062 178.210938 113.191406 L 178.210938 94.367188 L 181.34375 94.367188 C 185.28125 94.367188 188.484375 91.164062 188.484375 87.226562 L 188.484375 78.886719 C 188.484375 75.28125 185.792969 72.328125 182.320312 71.851562 C 180.957031 54.390625 169.871094 39.109375 153.65625 32.480469 C 152.636719 23.707031 145.125 16.765625 136 16.765625 Z M 136 24.21875 C 141.640625 24.21875 146.320312 28.851562 146.320312 34.546875 L 146.320312 48.78125 C 146.320312 50.839844 147.988281 52.507812 150.046875 52.507812 C 152.101562 52.507812 153.769531 50.839844 153.769531 48.78125 L 153.769531 40.746094 C 165.558594 46.765625 173.542969 58.457031 174.816406 71.746094 L 97.191406 71.746094 C 98.464844 58.453125 106.445312 46.765625 118.234375 40.746094 L 118.234375 48.78125 C 118.234375 50.839844 119.902344 52.507812 121.960938 52.507812 C 124.019531 52.507812 125.6875 50.839844 125.6875 48.78125 L 125.679688 34.546875 C 125.679688 28.855469 130.308594 24.21875 136 24.21875 Z M 101.242188 94.367188 L 170.757812 94.367188 L 170.757812 113.191406 C 170.757812 132.359375 155.164062 147.949219 136 147.949219 C 116.835938 147.949219 101.242188 132.359375 101.242188 113.191406 Z M 120.171875 102 C 117.464844 102 115.257812 104.207031 115.257812 106.914062 C 115.257812 109.621094 117.464844 111.824219 120.171875 111.824219 C 122.878906 111.824219 125.082031 109.621094 125.082031 106.914062 C 125.082031 104.207031 122.878906 102 120.171875 102 Z M 151.828125 102 C 149.121094 102 146.921875 104.207031 146.921875 106.914062 C 146.921875 109.621094 149.121094 111.824219 151.828125 111.824219 C 154.535156 111.824219 156.742188 109.621094 156.742188 106.914062 C 156.742188 104.207031 154.535156 102 151.828125 102 Z M 129.421875 124.9375 C 128.46875 124.9375 127.515625 125.300781 126.785156 126.03125 C 125.332031 127.484375 125.332031 129.84375 126.785156 131.296875 C 129.328125 133.839844 132.664062 135.113281 136 135.113281 C 139.335938 135.113281 142.671875 133.839844 145.214844 131.296875 C 146.667969 129.84375 146.667969 127.484375 145.214844 126.03125 C 143.757812 124.574219 141.398438 124.578125 139.945312 126.03125 C 137.769531 128.207031 134.230469 128.207031 132.054688 126.03125 C 131.328125 125.304688 130.375 124.9375 129.421875 124.9375 Z M 153.976562 151.328125 L 153.976562 157.714844 C 153.976562 167.628906 145.933594 175.675781 136.023438 175.675781 C 126.109375 175.675781 118.023438 167.628906 118.023438 157.714844 L 118.132812 151.378906 C 123.570312 153.929688 129.609375 155.402344 136 155.402344 C 142.433594 155.402344 148.511719 153.910156 153.976562 151.328125 Z M 110.695312 160.277344 C 111.984375 173.09375 122.839844 183.128906 136.023438 183.128906 C 149.167969 183.128906 160.015625 173.09375 161.304688 160.277344 L 175.769531 162.984375 L 175.769531 194.835938 L 96.230469 194.835938 L 96.230469 162.984375 Z M 88.777344 164.5625 L 88.777344 195.101562 C 80.738281 196.347656 74.542969 203.257812 74.542969 211.640625 L 74.542969 247.773438 L 69.769531 247.773438 C 65.261719 247.773438 61.574219 244.089844 61.574219 239.542969 L 61.574219 200.753906 C 61.574219 183.871094 72.820312 169.164062 88.777344 164.5625 Z M 183.222656 164.5625 C 199.179688 169.164062 210.425781 183.871094 210.425781 200.753906 L 210.425781 239.542969 C 210.425781 244.089844 206.738281 247.773438 202.230469 247.773438 L 197.457031 247.773438 L 197.457031 211.640625 C 197.457031 203.257812 191.265625 196.347656 183.222656 195.101562 Z M 96.992188 210.535156 C 100.371094 210.535156 103.113281 213.273438 103.113281 216.65625 C 103.113281 220.035156 100.371094 222.777344 96.992188 222.777344 C 93.613281 222.777344 90.871094 220.035156 90.871094 216.65625 C 90.871094 213.273438 93.613281 210.535156 96.992188 210.535156 Z M 175.007812 210.535156 C 178.386719 210.535156 181.128906 213.273438 181.128906 216.65625 C 181.128906 220.035156 178.386719 222.777344 175.007812 222.777344 C 171.628906 222.777344 168.886719 220.035156 168.886719 216.65625 C 168.886719 213.273438 171.628906 210.535156 175.007812 210.535156 Z M 175.007812 210.535156 "/>
</g>
</svg>
