<svg xmlns="http://www.w3.org/2000/svg" width="905" height="905" viewBox="0 0 905 905">
  <g id="Group_1" data-name="Group 1" transform="translate(-100 -65)">
    <circle id="Ellipse_1" data-name="Ellipse 1" cx="452.5" cy="452.5" r="452.5" transform="translate(100 65)" fill="#b8d06a"/>
    <path id="compact-camera-500" d="M203.158,5c-9.8,0-16.712,5.975-21.66,11.577s-8.963,11.95-12.7,17.926-7.142,11.577-10.083,14.938a18.083,18.083,0,0,1-3.735,3.361H35.851A36.042,36.042,0,0,0,0,88.653V411.315a36.042,36.042,0,0,0,35.851,35.851h525.82a36.042,36.042,0,0,0,35.851-35.851V88.653A36.042,36.042,0,0,0,561.671,52.8H442.54c.047.047-.093,0-.373,0a24.35,24.35,0,0,1-3.361-3.361c-2.941-3.361-6.349-8.963-10.083-14.938s-7.749-12.324-12.7-17.926S404.168,5,394.365,5Zm0,23.9H394.365c-.747,0,.794,0,3.735,3.361s6.349,8.963,10.083,14.938a142.522,142.522,0,0,0,12.7,17.926c4.855,5.6,11.484,11.577,21.287,11.577h119.5a11.8,11.8,0,0,1,11.95,11.95V411.315a11.8,11.8,0,0,1-11.95,11.95H35.851a11.8,11.8,0,0,1-11.95-11.95V88.653A11.8,11.8,0,0,1,35.851,76.7h119.5c9.8,0,16.432-5.975,21.287-11.577A142.525,142.525,0,0,0,189.34,47.2c3.735-5.975,7.142-11.577,10.083-14.938S203.9,28.9,203.158,28.9Zm95.6,47.8c-85.66,0-155.356,69.7-155.356,155.356s69.7,155.356,155.356,155.356,155.356-69.7,155.356-155.356S384.422,76.7,298.761,76.7Zm0,23.9A131.455,131.455,0,1,1,167.306,232.059,131.29,131.29,0,0,1,298.761,100.6ZM95.6,112.554a23.9,23.9,0,0,0,0,47.8h11.95a23.9,23.9,0,1,0,0-47.8ZM298.761,124.5A107.554,107.554,0,1,0,406.315,232.059,107.762,107.762,0,0,0,298.761,124.5Zm0,23.9a83.653,83.653,0,1,1-83.653,83.653A83.456,83.456,0,0,1,298.761,148.405Z" transform="translate(253.739 290.917)" fill="#fff"/>
  </g>
</svg>
