<svg xmlns="http://www.w3.org/2000/svg" width="835.357" height="799.653" viewBox="0 0 835.357 799.653">
  <path id="home-500" d="M418.678,1.051A17.78,17.78,0,0,0,407.9,4.688L7.635,317.091a17.455,17.455,0,0,0,21.55,27.464l24.031-18.763V783.3a17.454,17.454,0,0,0,17.4,17.4H314.26V487.45H523.1V800.7H766.737a17.454,17.454,0,0,0,17.4-17.4V325.793l24.031,18.763a17.912,17.912,0,0,0,10.775,3.671,17.411,17.411,0,0,0,10.775-31.135L429.453,4.688A17.78,17.78,0,0,0,418.678,1.051Zm174.03,68.728V88.066l104.418,81.44V69.779Z" transform="translate(-1 -1.051)" fill="#fff"/>
</svg>
