<?xml version="1.0" encoding="UTF-8"?>
<svg xmlns="http://www.w3.org/2000/svg" xmlns:xlink="http://www.w3.org/1999/xlink" viewBox="0 0 500 500" width="500px" height="500px">
<g id="surface3911313">
<path style=" stroke:none;fill-rule:nonzero;fill:rgb(100%,100%,100%);fill-opacity:1;" d="M 50 80 C 42.789062 79.898438 36.078125 83.6875 32.441406 89.917969 C 28.804688 96.148438 28.804688 103.851562 32.441406 110.082031 C 36.078125 116.3125 42.789062 120.101562 50 120 L 450 120 C 457.210938 120.101562 463.921875 116.3125 467.558594 110.082031 C 471.195312 103.851562 471.195312 96.148438 467.558594 89.917969 C 463.921875 83.6875 457.210938 79.898438 450 80 Z M 50 230 C 42.789062 229.898438 36.078125 233.6875 32.441406 239.917969 C 28.804688 246.148438 28.804688 253.851562 32.441406 260.082031 C 36.078125 266.3125 42.789062 270.101562 50 270 L 450 270 C 457.210938 270.101562 463.921875 266.3125 467.558594 260.082031 C 471.195312 253.851562 471.195312 246.148438 467.558594 239.917969 C 463.921875 233.6875 457.210938 229.898438 450 230 Z M 50 380 C 42.789062 379.898438 36.078125 383.6875 32.441406 389.917969 C 28.804688 396.148438 28.804688 403.851562 32.441406 410.082031 C 36.078125 416.3125 42.789062 420.101562 50 420 L 450 420 C 457.210938 420.101562 463.921875 416.3125 467.558594 410.082031 C 471.195312 403.851562 471.195312 396.148438 467.558594 389.917969 C 463.921875 383.6875 457.210938 379.898438 450 380 Z M 50 380 "/>
</g>
</svg>
