<svg xmlns="http://www.w3.org/2000/svg" width="856.416" height="720.002" viewBox="0 0 856.416 720.002">
  <path id="news-512" d="M249.69,8.92,142.638,39.506l-87.1-24.881L5,47.989V637.164a91.753,91.753,0,0,0,91.759,91.759h647.27a91.775,91.775,0,0,0,91.609-86.681l25.777-463.872H739.071V54.262l-57.648-38.83L571.8,39.775,463.794,8.92,356.742,39.506Zm0,63.622,107.052,30.586L463.794,72.542l106.1,30.317L677.9,78.844V667.75H96.759a30.578,30.578,0,0,1-30.586-30.586V81.264l76.466,21.864ZM142.638,178.369V484.232H417.915V178.369Zm336.449,0v61.173H601.433V178.369Zm0,122.345v61.173H601.433V300.714Zm0,122.345v61.173H601.433V423.06ZM142.638,545.4v61.173H417.915V545.4Zm336.449,0v61.173H601.433V545.4Z" transform="translate(-5 -8.92)" fill="#fff"/>
</svg>
