<?xml version="1.0" encoding="UTF-8"?>
<svg xmlns="http://www.w3.org/2000/svg" xmlns:xlink="http://www.w3.org/1999/xlink" viewBox="0 0 500 500" width="500px" height="500px">
<g id="surface52632582">
<path style=" stroke:none;fill-rule:nonzero;fill:rgb(100%,100%,100%);fill-opacity:1;" d="M 496.054688 2.1875 C 492.96875 -0.234375 488.75 -0.585938 485.273438 1.289062 L 5.273438 261.289062 C 1.796875 263.164062 -0.234375 266.953125 0.15625 270.898438 C 0.507812 274.84375 3.164062 278.203125 6.914062 279.414062 L 143.359375 323.945312 L 130.15625 459.023438 C 129.726562 463.320312 132.109375 467.382812 136.054688 469.0625 C 137.304688 469.648438 138.671875 469.921875 140 469.921875 C 142.773438 469.921875 145.507812 468.75 147.421875 466.5625 L 233.476562 369.335938 L 363.046875 497.070312 C 364.921875 498.90625 367.421875 499.921875 370 499.921875 C 370.898438 499.921875 371.796875 499.765625 372.695312 499.53125 C 376.09375 498.59375 378.75 495.859375 379.609375 492.421875 L 499.609375 12.421875 C 500.546875 8.59375 499.179688 4.570312 496.054688 2.1875 Z M 163.4375 322.109375 L 358.554688 164.335938 L 225.585938 348.4375 L 152.8125 430.585938 Z M 163.4375 322.109375 "/>
</g>
</svg>
