<svg xmlns="http://www.w3.org/2000/svg" width="781.309" height="830.063" viewBox="0 0 781.309 830.063">
  <path id="person-512" d="M414.618,37C290.572,37,190.013,137.559,190.013,261.605S290.572,486.21,414.618,486.21,639.223,385.651,639.223,261.605,538.664,37,414.618,37Zm0,527.334c-146.482,0-284.174,72.257-366.2,192.372C31.812,781.119,24,809.443,24,838.739c0,15.625,13.672,28.324,29.3,28.324H775.939c15.625,0,29.3-12.7,29.3-28.324a135.326,135.326,0,0,0-24.414-82.034C698.792,636.591,561.1,564.334,414.618,564.334Z" transform="translate(-24 -37)" fill="#fff"/>
</svg>
