<svg fill="#000000" xmlns="http://www.w3.org/2000/svg"  viewBox="0 0 72 72" width="512px" height="512px"><path d="M46.603,14C57.173,14,58,14.827,58,25.397v21.277C58,57.178,57.178,58,46.674,58H25.326C14.822,58,14,57.178,14,46.674	V25.326C14,14.822,14.822,14,25.326,14H46.603z M41.745,38.154c0.579-0.564,0.905-1.339,0.905-2.147s-0.326-1.583-0.905-2.147	l-7.299-7.122c-1.186-1.157-3.085-1.134-4.242,0.053c-1.157,1.185-1.135,3.085,0.052,4.242l5.099,4.975l-5.084,4.961	c-1.187,1.158-1.209,3.058-0.052,4.242c1.157,1.187,3.056,1.21,4.242,0.053L41.745,38.154z"/></svg>