<svg xmlns="http://www.w3.org/2000/svg" xmlns:xlink="http://www.w3.org/1999/xlink" viewBox="0,0,256,256" width="384px" height="384px" fill-rule="nonzero"><g fill="#888686" fill-rule="nonzero" stroke="none" stroke-width="1" stroke-linecap="butt" stroke-linejoin="miter" stroke-miterlimit="10" stroke-dasharray="" stroke-dashoffset="0" font-family="none" font-weight="none" font-size="none" text-anchor="none" style="mix-blend-mode: normal"><g transform="scale(10.66667,10.66667)"><path d="M14,20.75c-0.41421,0 -0.75,-0.33579 -0.75,-0.75v-4.25h-5.25c-4.364,0 -5.264,3.4 -5.272,3.432c-0.09122,0.36828 -0.4431,0.61043 -0.81966,0.56406c-0.37656,-0.04637 -0.65919,-0.36666 -0.65834,-0.74606v-4c0.00441,-3.72609 3.02391,-6.74559 6.75,-6.75h5.25v-4.25c0.00027,-0.30314 0.183,-0.57632 0.46308,-0.69229c0.28008,-0.11597 0.60244,-0.05193 0.81692,0.16229l8,8c0.1407,0.1405 0.21975,0.33117 0.21975,0.53c0,0.19883 -0.07906,0.3895 -0.21975,0.53l-8,8c-0.14027,0.14107 -0.33107,0.22027 -0.53,0.22zM8,14.25h6c0.41421,0 0.75,0.33579 0.75,0.75v3.189l6.189,-6.189l-6.189,-6.189v3.189c0,0.41421 -0.33579,0.75 -0.75,0.75h-6c-2.89812,0.00331 -5.24669,2.35188 -5.25,5.25v1.318c1.37578,-1.40532 3.28539,-2.15752 5.25,-2.068z"></path></g></g></svg>