<svg xmlns="http://www.w3.org/2000/svg" xmlns:xlink="http://www.w3.org/1999/xlink" viewBox="0,0,256,256" width="384px" height="384px" fill-rule="evenodd"><g fill="#888686" fill-rule="evenodd" stroke="none" stroke-width="1" stroke-linecap="butt" stroke-linejoin="miter" stroke-miterlimit="10" stroke-dasharray="" stroke-dashoffset="0" font-family="none" font-weight="none" font-size="none" text-anchor="none" style="mix-blend-mode: normal"><g transform="scale(10.66667,10.66667)"><path d="M9.01563,3c-0.92,0 -1.74784,0.56006 -2.08984,1.41406l-0.24414,0.61523c-0.114,0.284 -0.39027,0.4707 -0.69727,0.4707h-1.98437c-1.519,0 -2.75,1.231 -2.75,2.75v10c0,0.729 0.28969,1.42931 0.80469,1.94531c0.516,0.515 1.21631,0.80469 1.94531,0.80469h16c0.729,0 1.42931,-0.28969 1.94531,-0.80469c0.515,-0.516 0.80469,-1.21631 0.80469,-1.94531v-10c0,-1.519 -1.231,-2.75 -2.75,-2.75h-1.98437c-0.307,0 -0.58327,-0.1867 -0.69727,-0.4707l-0.24414,-0.61523c-0.342,-0.854 -1.16984,-1.41406 -2.08984,-1.41406zM9.01563,4.5h5.96875c0.307,0 0.58327,0.1867 0.69727,0.4707l0.24414,0.61523c0.342,0.854 1.16984,1.41406 2.08984,1.41406h1.98438c0.69,0 1.25,0.56 1.25,1.25v10c0,0.332 -0.13123,0.64977 -0.36523,0.88477c-0.235,0.234 -0.55277,0.36523 -0.88477,0.36523h-16c-0.332,0 -0.64977,-0.13123 -0.88477,-0.36523c-0.234,-0.235 -0.36523,-0.55277 -0.36523,-0.88477v-10c0,-0.69 0.56,-1.25 1.25,-1.25h1.98438c0.92,0 1.74784,-0.56006 2.08984,-1.41406l0.24414,-0.61523c0.114,-0.284 0.39027,-0.4707 0.69727,-0.4707zM12,7.5c-2.898,0 -5.25,2.352 -5.25,5.25c0,2.898 2.352,5.25 5.25,5.25c2.898,0 5.25,-2.352 5.25,-5.25c0,-2.898 -2.352,-5.25 -5.25,-5.25zM12,9c2.07,0 3.75,1.68 3.75,3.75c0,2.07 -1.68,3.75 -3.75,3.75c-2.07,0 -3.75,-1.68 -3.75,-3.75c0,-2.07 1.68,-3.75 3.75,-3.75z"></path></g></g></svg>