<svg xmlns="http://www.w3.org/2000/svg" xmlns:xlink="http://www.w3.org/1999/xlink" viewBox="0,0,256,256" width="512px" height="512px" fill-rule="nonzero"><g fill="#888686" fill-rule="nonzero" stroke="none" stroke-width="1" stroke-linecap="butt" stroke-linejoin="miter" stroke-miterlimit="10" stroke-dasharray="" stroke-dashoffset="0" font-family="none" font-weight="none" font-size="none" text-anchor="none" style="mix-blend-mode: normal"><g transform="scale(4,4)"><path d="M25.01172,9c-3.14778,0 -5.72289,2.13369 -6.60352,5h-3.39648c-3.86036,0 -7.01172,3.15136 -7.01172,7.01172v16.97656c0,3.86036 3.15136,7.01172 7.01172,7.01172h1.90625c-0.01561,3.4086 -0.18229,5.97883 -3.69922,10.375c-0.25895,0.32361 -0.29145,0.77342 -0.08173,1.1309c0.20972,0.35748 0.61822,0.54857 1.02704,0.48043c6.26215,-1.04369 9.80547,-4.25402 11.67969,-7.19922c1.38891,-2.18257 1.78703,-3.86088 1.95898,-4.78711h14.19727c0.36064,0.0051 0.69608,-0.18438 0.87789,-0.49587c0.18181,-0.3115 0.18181,-0.69676 0,-1.00825c-0.18181,-0.3115 -0.51725,-0.50097 -0.87789,-0.49587h-15c-0.51335,0.0005 -0.94296,0.38959 -0.99414,0.90039c0,0 -0.22383,2.2577 -1.84961,4.8125c-1.36185,2.14006 -3.76752,4.37886 -7.84961,5.63281c2.47372,-3.93082 2.69336,-6.98168 2.69336,-10.3457c-0.00006,-0.55226 -0.44774,-0.99994 -1,-1h-2.98828c-2.77964,0 -5.01172,-2.23208 -5.01172,-5.01172v-16.97656c0,-2.77964 2.23208,-5.01172 5.01172,-5.01172h2.99023c-0.00001,0.0041 -0.00195,0.0076 -0.00195,0.01172v16.97656c0.00005,3.86036 3.15136,7.01172 7.01172,7.01172h15.97656c3.14795,0 5.72304,-2.13394 6.60352,-5h3.39648c3.86036,0 7.01172,-3.15024 7.01172,-7.00977v-11.97852c0,-3.86036 -3.15024,-7.01172 -7.00977,-7.01172zM25.01172,11h25.97852c2.77848,0 5.00977,2.23208 5.00977,5.01172v11.97852c0,2.77848 -2.23208,5.00977 -5.01172,5.00977h-2.99023c0.00001,-0.0035 0.00195,-0.00627 0.00195,-0.00977v-11.97852c-0.00005,-3.86036 -3.15024,-7.01172 -7.00977,-7.01172h-20.56055c0.77219,-1.76709 2.52124,-3 4.58203,-3zM20.00195,16h20.98828c2.77848,0 5.00977,2.23208 5.00977,5.01172v11.97852c0,0.0035 -0.00185,0.00627 -0.00195,0.00977h-17.99805c-0.36064,-0.0051 -0.69608,0.18438 -0.87789,0.49587c-0.18181,0.3115 -0.18181,0.69676 0,1.00825c0.18181,0.3115 0.51725,0.50097 0.87789,0.49587h17.57031c-0.77219,1.76666 -2.52124,3 -4.58203,3h-15.97656c-2.77964,-0.00003 -5.01172,-2.23208 -5.01172,-5.01172v-16.97656c0,-0.0041 0.00185,-0.0076 0.00195,-0.01172z"></path></g></g></svg>