<svg xmlns="http://www.w3.org/2000/svg" xmlns:xlink="http://www.w3.org/1999/xlink" viewBox="0,0,256,256" width="500px" height="500px" fill-rule="nonzero"><g fill="#888686" fill-rule="nonzero" stroke="none" stroke-width="1" stroke-linecap="butt" stroke-linejoin="miter" stroke-miterlimit="10" stroke-dasharray="" stroke-dashoffset="0" font-family="none" font-weight="none" font-size="none" text-anchor="none" style="mix-blend-mode: normal"><g transform="scale(5.12,5.12)"><path d="M25,7c-1.85156,0 -3.40625,1.28516 -3.85547,3h-18.14453c-0.35937,-0.00391 -0.69531,0.18359 -0.87891,0.49609c-0.17969,0.3125 -0.17969,0.69531 0,1.00781c0.18359,0.3125 0.51953,0.5 0.87891,0.49609h18.14453c0.44922,1.71484 2.00391,3 3.85547,3c1.85156,0 3.40625,-1.28516 3.85547,-3h18.14453c0.35938,0.00391 0.69531,-0.18359 0.87891,-0.49609c0.17969,-0.3125 0.17969,-0.69531 0,-1.00781c-0.18359,-0.3125 -0.51953,-0.5 -0.87891,-0.49609h-18.14453c-0.44922,-1.71484 -2.00391,-3 -3.85547,-3zM25,9c1.08594,0 1.94141,0.83594 1.98828,1.91016c-0.00391,0.05859 -0.00391,0.12109 0,0.18359c-0.04687,1.07031 -0.90234,1.90625 -1.98828,1.90625c-1.08594,0 -1.94141,-0.83594 -1.98828,-1.91016c0.00391,-0.05859 0.00391,-0.12109 0,-0.18359c0.04688,-1.07031 0.90234,-1.90625 1.98828,-1.90625zM39,21c-1.85156,0 -3.40625,1.28516 -3.85547,3h-32.14453c-0.35937,-0.00391 -0.69531,0.18359 -0.87891,0.49609c-0.17969,0.3125 -0.17969,0.69531 0,1.00781c0.18359,0.3125 0.51953,0.5 0.87891,0.49609h32.14453c0.44922,1.71484 2.00391,3 3.85547,3c1.85156,0 3.40625,-1.28516 3.85547,-3h4.14453c0.35938,0.00391 0.69531,-0.18359 0.87891,-0.49609c0.17969,-0.3125 0.17969,-0.69531 0,-1.00781c-0.18359,-0.3125 -0.51953,-0.5 -0.87891,-0.49609h-4.14453c-0.44922,-1.71484 -2.00391,-3 -3.85547,-3zM39,23c1.08594,0 1.94141,0.83594 1.98828,1.91016c-0.00391,0.05859 -0.00391,0.12109 0,0.18359c-0.04687,1.07031 -0.90234,1.90625 -1.98828,1.90625c-1.08594,0 -1.94141,-0.83594 -1.98828,-1.91016c0.00391,-0.05859 0.00391,-0.12109 0,-0.18359c0.04688,-1.07031 0.90234,-1.90625 1.98828,-1.90625zM14,35c-1.85156,0 -3.40625,1.28516 -3.85547,3h-7.14453c-0.35937,-0.00391 -0.69531,0.18359 -0.87891,0.49609c-0.17969,0.3125 -0.17969,0.69531 0,1.00781c0.18359,0.3125 0.51953,0.5 0.87891,0.49609h7.14453c0.44922,1.71484 2.00391,3 3.85547,3c1.85156,0 3.40625,-1.28516 3.85547,-3h29.14453c0.35938,0.00391 0.69531,-0.18359 0.87891,-0.49609c0.17969,-0.3125 0.17969,-0.69531 0,-1.00781c-0.18359,-0.3125 -0.51953,-0.5 -0.87891,-0.49609h-29.14453c-0.44922,-1.71484 -2.00391,-3 -3.85547,-3zM14,37c1.08594,0 1.94141,0.83594 1.98828,1.91016c-0.00391,0.05859 -0.00391,0.12109 0,0.18359c-0.04687,1.07031 -0.90234,1.90625 -1.98828,1.90625c-1.08594,0 -1.94141,-0.83594 -1.98828,-1.91016c0.00391,-0.05859 0.00391,-0.12109 0,-0.18359c0.04688,-1.07031 0.90234,-1.90625 1.98828,-1.90625z"></path></g></g></svg>