<svg xmlns="http://www.w3.org/2000/svg" xmlns:xlink="http://www.w3.org/1999/xlink" viewBox="0,0,256,256" width="384px" height="384px" fill-rule="evenodd"><g fill="#888686" fill-rule="evenodd" stroke="none" stroke-width="1" stroke-linecap="butt" stroke-linejoin="miter" stroke-miterlimit="10" stroke-dasharray="" stroke-dashoffset="0" font-family="none" font-weight="none" font-size="none" text-anchor="none" style="mix-blend-mode: normal"><g transform="scale(10.66667,10.66667)"><path d="M12.86,2.77c-0.52,-0.37 -1.21,-0.37 -1.73,0l-8,5.59c-0.41,0.28 -0.64,0.73 -0.64,1.22v9.95c0,0.82 0.67,1.5 1.5,1.5h4.5v-6.5c0,-0.83 0.67,-1.5 1.5,-1.5h4c0.82,0 1.5,0.67 1.5,1.5v6.5h4.5c0.82,0 1.5,-0.68 1.5,-1.5v-9.96c0,-0.49 -0.24,-0.95 -0.64,-1.23l-8,-5.6zM13.43,1.95l-0.29,0.4l0.28,-0.41l8,5.59c0.66,0.46 1.06,1.23 1.06,2.04v9.95c0,1.38 -1.12,2.5 -2.5,2.5h-5c-0.28,0 -0.5,-0.23 -0.5,-0.5v-7c0,-0.28 -0.23,-0.5 -0.5,-0.5h-4c-0.28,0 -0.5,0.22 -0.5,0.5v7c0,0.27 -0.23,0.5 -0.5,0.5h-5c-1.39,0 -2.5,-1.12 -2.5,-2.5v-9.96c0,-0.82 0.39,-1.59 1.06,-2.05l7.99,-5.6c0.86,-0.61 2,-0.61 2.86,-0.001z"></path></g></g></svg>