<svg xmlns="http://www.w3.org/2000/svg" xmlns:xlink="http://www.w3.org/1999/xlink" viewBox="0,0,256,256" width="384px" height="384px" fill-rule="nonzero"><g fill="#888686" fill-rule="nonzero" stroke="none" stroke-width="1" stroke-linecap="butt" stroke-linejoin="miter" stroke-miterlimit="10" stroke-dasharray="" stroke-dashoffset="0" font-family="none" font-weight="none" font-size="none" text-anchor="none" style="mix-blend-mode: normal"><g transform="scale(10.66667,10.66667)"><path d="M16.5,3c-2.895,0 -4.5,2.09 -4.5,2.09c0,0 -1.605,-2.09 -4.5,-2.09c-3.038,0 -5.5,2.462 -5.5,5.5c0,5.5 10,12.5 10,12.5c0,0 10,-7 10,-12.5c0,-3.038 -2.462,-5.5 -5.5,-5.5zM12,18.518c-3.483,-2.673 -8,-7.112 -8,-10.018c0,-1.93 1.57,-3.5 3.5,-3.5c2.402,0 4.5,2.907 4.5,2.907c0,0 2.14,-2.907 4.5,-2.907c1.93,0 3.5,1.57 3.5,3.5c0,2.906 -4.517,7.345 -8,10.018z"></path></g></g></svg>