<svg xmlns="http://www.w3.org/2000/svg" xmlns:xlink="http://www.w3.org/1999/xlink" viewBox="0,0,256,256" width="512px" height="512px" fill-rule="nonzero"><g fill="#888686" fill-rule="nonzero" stroke="none" stroke-width="1" stroke-linecap="butt" stroke-linejoin="miter" stroke-miterlimit="10" stroke-dasharray="" stroke-dashoffset="0" font-family="none" font-weight="none" font-size="none" text-anchor="none" style="mix-blend-mode: normal"><g transform="scale(0.5,0.5)"><path d="M256,28c-92.21761,-0.00029 -175.35501,55.55013 -210.6452,140.74808c-35.29019,85.19795 -15.78334,183.26506 49.4245,248.47262c89.03973,89.03973 233.40167,89.03973 322.4414,0c89.03973,-89.03973 89.03973,-233.40167 0,-322.4414c-42.66492,-42.898 -100.71858,-66.94443 -161.2207,-66.7793zM256,48c114.691,0 208,93.309 208,208c0.02891,56.98486 -23.38614,111.47212 -64.74805,150.66992v-2.95703c0,-78.988 -64.262,-143.25 -143.25,-143.25c-78.988,0 -143.25,64.262 -143.25,143.25v2.96094c-41.36433,-39.19806 -64.78092,-93.68703 -64.75195,-150.67383c0,-114.691 93.309,-208 208,-208zM256.45508,95.14648c-42.69588,0.00033 -77.30752,34.61232 -77.30741,77.30819c0.00011,42.69588 34.61192,77.30769 77.3078,77.30781c42.69588,0.00011 77.30787,-34.61153 77.3082,-77.3074c-0.05037,-42.67548 -34.63311,-77.25823 -77.30859,-77.3086zM254.07227,115.19727c15.59891,-0.64931 30.78751,5.09367 42.05445,15.90126c11.26693,10.80759 17.63679,25.74413 17.63695,41.35655c-0.0355,31.63595 -25.67264,57.27309 -57.30859,57.30859c-31.18554,-0.00054 -56.64615,-24.93754 -57.29462,-56.11634c-0.64847,-31.1788 23.75326,-57.15286 54.91181,-58.45006zM259.59961,280.51367c66.63964,1.94604 119.65223,56.52922 119.65234,123.19727v19.73047c-73.26875,54.07818 -173.23125,54.07818 -246.5,0v-19.73047c0.00006,-33.31177 13.48424,-65.20496 37.38055,-88.41359c23.89631,-23.20863 56.16953,-35.75605 89.46711,-34.78368z"></path></g></g></svg>